<svg xmlns="http://www.w3.org/2000/svg" version="1.1" xmlns:xlink="http://www.w3.org/1999/xlink" xmlns:svgjs="http://svgjs.dev/svgjs" width="1440" height="560" preserveAspectRatio="none" viewBox="0 0 1440 560"><g clip-path="url(&quot;#SvgjsClipPath1983&quot;)" fill="none"><rect width="1440" height="560" x="0" y="0" fill="url(&quot;#SvgjsLinearGradient1984&quot;)"></rect><path d="M40.66 51.29Q49.27 53.64 57.89 55.99 66.5 58.3 75.12 60.6 83.73 62.85 92.34 65.1 100.96 67.27 109.57 69.45 118.19 71.54 126.8 73.63" stroke="#4000ff" stroke-width="4"></path><path d="M146.16 78.1Q152.19 79.43 158.23 80.76 164.26 82.03 170.29 83.3 176.33 84.51 182.36 85.72" stroke="#ff00ff" stroke-width="4"></path><path d="M205.6 90.02Q213.55 91.34 221.51 92.67 229.46 93.86 237.41 95.06 245.37 96.13 253.32 97.19 261.27 98.12 269.23 99.05 277.18 99.83 285.13 100.62 293.08 101.25 301.04 101.89 308.99 102.38 316.94 102.87 324.9 103.21 332.85 103.55" stroke="#8000ff" stroke-width="4"></path><path d="M350.8 103.95Q360.14 103.95 369.49 103.95 378.84 103.73 388.18 103.52 397.52 103.09 406.87 102.67" stroke="#4000ff" stroke-width="4"></path><path d="M431.75 100.89Q439.45 100.16 447.15 99.43 454.85 98.56 462.55 97.7 470.25 96.7 477.95 95.71 485.65 94.59 493.35 93.47 501.05 92.23 508.75 90.99 516.44 89.63 524.14 88.28 531.84 86.81 539.54 85.34 547.24 83.78 554.94 82.21 562.64 80.55 570.34 78.89 578.04 77.13 585.74 75.38" stroke="#8000ff" stroke-width="4"></path><path d="M612.98 68.81Q621.08 66.76 629.17 64.7 637.27 62.59 645.37 60.48 653.46 58.31 661.56 56.14 669.66 53.94 677.75 51.73 685.85 49.5 693.95 47.26 702.04 45.01 710.14 42.75 718.23 40.49 726.33 38.23 734.43 35.98 742.52 33.72 750.62 31.48 758.72 29.24 766.81 27.03 774.91 24.81" stroke="#4000ff" stroke-width="4"></path><path d="M795.94 19.18Q802.45 17.48 808.97 15.78 815.48 14.11 821.99 12.45 828.51 10.83 835.02 9.21" stroke="#4000ff" stroke-width="4"></path><path d="M874.27 0.1Q882.31-1.61 890.35-3.31 898.39-4.91 906.43-6.51 914.47-7.99 922.52-9.48 930.56-10.84 938.6-12.2 946.64-13.43 954.68-14.67 962.72-15.77 970.76-16.87 978.8-17.83 986.84-18.79 994.88-19.6 1002.92-20.41 1010.97-21.08 1019.01-21.75 1027.05-22.26 1035.09-22.78 1043.13-23.13 1051.17-23.49" stroke="#0080ff" stroke-width="4"></path><path d="M1084.5-23.99Q1089.06-23.94 1093.63-23.89 1098.19-23.79 1102.75-23.68 1107.32-23.53 1111.88-23.38" stroke="#8000ff" stroke-width="4"></path><path d="M1147.43-21.25Q1152.88-20.77 1158.32-20.3 1163.77-19.76 1169.22-19.21 1174.66-18.6 1180.11-17.99" stroke="#ff0080" stroke-width="4"></path><path d="M1212.72-13.57Q1221.39-12.16 1230.06-10.76 1238.73-9.22 1247.4-7.67 1256.07-5.99 1264.74-4.31 1273.41-2.5 1282.08-0.69 1290.75 1.23 1299.42 3.16 1308.09 5.19 1316.76 7.22" stroke="#4000ff" stroke-width="4"></path><path d="M1344.72 14.15Q1353 16.3 1361.28 18.45 1369.56 20.65 1377.84 22.85 1386.12 25.1 1394.4 27.35 1402.68 29.63 1410.96 31.91 1419.24 34.21 1427.52 36.52" stroke="#00ffff" stroke-width="4"></path><path d="M7.45 82.08Q15.71 84.38 23.97 86.68 32.23 88.97 40.5 91.25 48.76 93.5 57.02 95.76" stroke="#0080ff" stroke-width="4"></path><path d="M71.66 99.69Q79.46 101.73 87.25 103.78 95.05 105.77 102.84 107.76 110.64 109.69 118.43 111.62 126.23 113.47 134.02 115.33 141.82 117.1 149.61 118.88 157.41 120.56 165.21 122.24 173 123.83 180.8 125.41 188.59 126.89 196.39 128.37 204.18 129.74 211.98 131.11 219.77 132.36 227.57 133.61 235.36 134.74 243.16 135.86" stroke="#8000ff" stroke-width="4"></path><path d="M282.33 140.36Q290.19 141.02 298.04 141.68 305.9 142.19 313.76 142.7 321.62 143.07 329.47 143.43 337.33 143.65 345.19 143.87 353.04 143.93 360.9 144 368.76 143.92 376.62 143.83 384.47 143.6 392.33 143.36 400.19 142.98 408.04 142.6 415.9 142.07 423.76 141.54 431.61 140.87 439.47 140.19 447.33 139.37 455.19 138.56 463.04 137.61 470.9 136.65" stroke="#ff00ff" stroke-width="4"></path><path d="M506.62 131.34Q515.04 129.87 523.46 128.4 531.88 126.8 540.31 125.19 548.73 123.47 557.15 121.74 565.57 119.91 573.99 118.07 582.41 116.13 590.84 114.19 599.26 112.16 607.68 110.13" stroke="#8000ff" stroke-width="4"></path><path d="M637.68 102.5Q646.24 100.23 654.8 97.96 663.36 95.64 671.92 93.33 680.49 90.97 689.05 88.62 697.61 86.24 706.17 83.86 714.73 81.47 723.29 79.08" stroke="#0080ff" stroke-width="4"></path><path d="M747.79 72.26Q756 69.99 764.21 67.73 772.42 65.5 780.63 63.26 788.85 61.07 797.06 58.88 805.27 56.75 813.48 54.61" stroke="#ff0080" stroke-width="4"></path><path d="M837.93 48.5Q840.59 47.86 843.25 47.22 845.91 46.58 848.56 45.95 851.22 45.33 853.88 44.7" stroke="#00ffff" stroke-width="4"></path><path d="M887.88 37.2Q896 35.57 904.12 33.94 912.24 32.42 920.37 30.91 928.49 29.52 936.61 28.12 944.73 26.86 952.85 25.6" stroke="#0080ff" stroke-width="4"></path><path d="M978.85 22.13Q986.69 21.27 994.53 20.4 1002.37 19.67 1010.21 18.94 1018.06 18.36 1025.9 17.78 1033.74 17.34 1041.58 16.9 1049.42 16.61 1057.26 16.31" stroke="#ff00ff" stroke-width="4"></path><path d="M1080.26 16Q1088.14 16.08 1096.02 16.16 1103.9 16.39 1111.78 16.61 1119.66 16.99 1127.55 17.37 1135.43 17.9 1143.31 18.43 1151.19 19.1 1159.07 19.77 1166.95 20.59 1174.83 21.4" stroke="#8000ff" stroke-width="4"></path><path d="M1213.66 26.58Q1221.76 27.89 1229.85 29.2 1237.95 30.64 1246.05 32.08 1254.15 33.63 1262.24 35.19 1270.34 36.86 1278.44 38.53 1286.54 40.3 1294.63 42.07 1302.73 43.94 1310.83 45.81 1318.92 47.76 1327.02 49.71 1335.12 51.74 1343.22 53.77 1351.31 55.86 1359.41 57.96 1367.51 60.1 1375.61 62.25 1383.7 64.45 1391.8 66.64" stroke="#8000ff" stroke-width="4"></path><path d="M1406.72 70.74Q1412.27 72.28 1417.81 73.81 1423.36 75.36 1428.91 76.9 1434.45 78.45 1440 80" stroke="#8000ff" stroke-width="4"></path><path d="M42.15 131.7Q48.19 133.35 54.23 135 60.27 136.63 66.31 138.26 72.35 139.86 78.39 141.47" stroke="#ff00ff" stroke-width="4"></path><path d="M96.86 146.25Q104.8 148.24 112.74 150.23 120.68 152.14 128.61 154.06 136.55 155.89 144.49 157.73 152.43 159.47 160.37 161.22 168.31 162.86 176.24 164.51 184.18 166.05 192.12 167.58 200.06 169.01 208 170.43 215.94 171.74 223.87 173.04 231.81 174.21 239.75 175.39" stroke="#8000ff" stroke-width="4"></path><path d="M276.6 179.81Q278.63 180.01 280.65 180.2 282.68 180.39 284.7 180.58 286.73 180.75 288.75 180.93" stroke="#4000ff" stroke-width="4"></path><path d="M298.83 181.73Q300.61 181.86 302.38 181.99 304.15 182.11 305.93 182.23 307.7 182.34 309.48 182.45" stroke="#ff0080" stroke-width="4"></path><path d="M333.06 183.56Q340.56 183.74 348.06 183.91 355.56 183.95 363.07 183.99 370.57 183.9 378.07 183.8 385.57 183.57 393.07 183.33 400.57 182.97 408.07 182.6 415.58 182.09 423.08 181.59 430.58 180.96 438.08 180.32 445.58 179.56 453.08 178.79 460.59 177.9 468.09 177.01 475.59 176 483.09 174.99" stroke="#0080ff" stroke-width="4"></path><path d="M508.8 170.98Q514.71 169.95 520.62 168.92 526.53 167.82 532.44 166.72 538.35 165.56 544.26 164.41" stroke="#0080ff" stroke-width="4"></path><path d="M571.3 158.67Q579.32 156.84 587.34 155.01 595.36 153.1 603.38 151.18 611.4 149.19 619.42 147.19 627.44 145.14 635.46 143.08 643.48 140.96 651.5 138.85 659.51 136.68 667.53 134.52 675.55 132.33 683.57 130.13 691.59 127.91 699.61 125.69 707.63 123.45 715.65 121.21 723.67 118.98 731.69 116.74 739.71 114.51 747.73 112.28" stroke="#4000ff" stroke-width="4"></path><path d="M783.6 102.47Q791.49 100.37 799.38 98.27 807.26 96.23 815.15 94.19 823.04 92.2 830.93 90.22 838.82 88.31 846.7 86.39 854.59 84.56 862.48 82.73 870.37 80.98 878.26 79.24 886.15 77.59 894.03 75.94 901.92 74.39 909.81 72.85" stroke="#ff0080" stroke-width="4"></path><path d="M947.74 66.36Q955.27 65.28 962.8 64.19 970.32 63.22 977.85 62.25 985.38 61.41 992.91 60.57 1000.43 59.85 1007.96 59.14 1015.49 58.55 1023.02 57.97 1030.54 57.52 1038.07 57.07 1045.6 56.75 1053.13 56.44 1060.66 56.26 1068.18 56.09 1075.71 56.05 1083.24 56.01 1090.77 56.11 1098.29 56.2 1105.82 56.44 1113.35 56.68" stroke="#00ffff" stroke-width="4"></path><path d="M1125 57.23Q1131.07 57.6 1137.13 57.98 1143.2 58.44 1149.26 58.9 1155.33 59.45 1161.39 59.99" stroke="#ff00ff" stroke-width="4"></path><path d="M1183.58 62.43Q1185.24 62.63 1186.9 62.84 1188.57 63.05 1190.23 63.26 1191.89 63.48 1193.55 63.7" stroke="#8000ff" stroke-width="4"></path><path d="M1206.7 65.53Q1214.55 66.75 1222.41 67.96 1230.26 69.3 1238.12 70.64 1245.97 72.09 1253.83 73.54 1261.68 75.1 1269.54 76.67 1277.39 78.33 1285.25 79.99 1293.1 81.75 1300.96 83.51 1308.81 85.35 1316.66 87.2 1324.52 89.12 1332.37 91.04 1340.23 93.03 1348.08 95.01 1355.94 97.06 1363.79 99.11 1371.65 101.2 1379.5 103.3 1387.36 105.44 1395.21 107.57" stroke="#0080ff" stroke-width="4"></path><path d="M1416.88 113.55Q1417.84 113.82 1418.81 114.09 1419.77 114.36 1420.73 114.63 1421.7 114.89 1422.66 115.16 1423.62 115.43 1424.59 115.7 1425.55 115.97 1426.51 116.24 1427.48 116.5 1428.44 116.77 1429.4 117.04 1430.37 117.31 1431.33 117.58 1432.29 117.85 1433.26 118.12 1434.22 118.39 1435.18 118.66 1436.15 118.92 1437.11 119.19 1438.07 119.46 1439.04 119.73 1440 120" stroke="#00ffff" stroke-width="4"></path><path d="M25.46 167.1Q33.15 169.22 40.85 171.35 48.54 173.45 56.23 175.55 63.93 177.61 71.62 179.68 79.32 181.7 87.01 183.72" stroke="#ff00ff" stroke-width="4"></path><path d="M116.51 191.15Q124.48 193.06 132.46 194.96 140.43 196.79 148.4 198.61 156.38 200.33 164.35 202.06 172.33 203.69 180.3 205.31" stroke="#4000ff" stroke-width="4"></path><path d="M198.45 208.75Q206.81 210.19 215.17 211.64 223.53 212.95 231.89 214.26 240.26 215.42 248.62 216.59 256.98 217.6 265.34 218.62" stroke="#00ffff" stroke-width="4"></path><path d="M279.91 220.13Q288.37 220.86 296.84 221.58 305.3 222.14 313.76 222.7 322.22 223.09 330.69 223.48 339.15 223.69 347.61 223.91 356.08 223.95 364.54 223.99" stroke="#0080ff" stroke-width="4"></path><path d="M378.83 223.78Q386.95 223.52 395.07 223.25 403.19 222.83 411.31 222.4 419.43 221.82 427.55 221.24 435.67 220.51 443.78 219.77 451.9 218.89 460.02 218 468.14 216.97 476.26 215.94 484.38 214.77 492.5 213.6 500.62 212.29 508.74 210.99" stroke="#8000ff" stroke-width="4"></path><path d="M531.36 206.93Q539.19 205.39 547.02 203.85 554.86 202.2 562.69 200.56 570.52 198.82 578.35 197.08 586.18 195.26 594.02 193.44 601.85 191.53 609.68 189.63 617.51 187.66 625.34 185.69 633.18 183.66 641.01 181.62 648.84 179.54 656.67 177.46 664.5 175.34 672.34 173.21 680.17 171.06 688 168.91" stroke="#4000ff" stroke-width="4"></path><path d="M715.68 161.21Q724.18 158.83 732.68 156.46 741.17 154.1 749.67 151.74 758.17 149.4 766.67 147.06 775.17 144.75 783.66 142.45 792.16 140.19 800.66 137.94" stroke="#ff0080" stroke-width="4"></path><path d="M835.95 128.98Q843.56 127.16 851.18 125.34 858.79 123.59 866.41 121.84 874.02 120.18 881.64 118.51 889.25 116.94 896.87 115.37 904.48 113.89 912.1 112.42 919.71 111.05 927.32 109.68 934.94 108.43 942.55 107.17 950.17 106.03 957.78 104.89 965.4 103.87 973.01 102.85 980.63 101.95 988.24 101.06 995.86 100.3 1003.47 99.54" stroke="#4000ff" stroke-width="4"></path><path d="M1018.3 98.31Q1026.8 97.76 1035.3 97.21 1043.8 96.84 1052.3 96.47 1060.8 96.27 1069.3 96.07 1077.81 96.05 1086.31 96.02 1094.81 96.18 1103.31 96.33 1111.81 96.66 1120.31 96.99" stroke="#0080ff" stroke-width="4"></path><path d="M1145.47 98.59Q1153.07 99.26 1160.68 99.92 1168.28 100.72 1175.88 101.52 1183.48 102.45 1191.09 103.37 1198.69 104.42 1206.29 105.47 1213.89 106.64 1221.5 107.82 1229.1 109.1 1236.7 110.39 1244.31 111.78 1251.91 113.18 1259.51 114.67 1267.11 116.17 1274.72 117.77 1282.32 119.36 1289.92 121.04 1297.52 122.73 1305.13 124.49 1312.73 126.26 1320.33 128.1 1327.93 129.94 1335.54 131.84 1343.14 133.75" stroke="#ff0080" stroke-width="4"></path><path d="M1362.51 138.77Q1366.03 139.7 1369.55 140.64 1373.08 141.58 1376.6 142.52 1380.12 143.47 1383.64 144.42 1387.17 145.38 1390.69 146.34 1394.21 147.3 1397.73 148.26 1401.26 149.23 1404.78 150.2 1408.3 151.18 1411.82 152.15 1415.34 153.13 1418.87 154.11 1422.39 155.09 1425.91 156.07 1429.43 157.05 1432.96 158.03 1436.48 159.02 1440 160" stroke="#8000ff" stroke-width="4"></path><path d="M4.05 201.13Q12.16 203.39 20.28 205.66 28.39 207.9 36.51 210.15 44.63 212.38 52.74 214.6 60.85 216.78 68.97 218.97 77.09 221.11 85.2 223.25 93.31 225.33 101.43 227.41 109.54 229.42 117.66 231.43" stroke="#ff00ff" stroke-width="4"></path><path d="M142.43 237.26Q149.28 238.78 156.13 240.3 162.98 241.75 169.83 243.2 176.68 244.57 183.53 245.95" stroke="#4000ff" stroke-width="4"></path><path d="M196.68 248.43Q204.91 249.87 213.14 251.3 221.38 252.61 229.61 253.92 237.84 255.09 246.07 256.25 254.31 257.28 262.54 258.3 270.77 259.17 279 260.04 287.23 260.76 295.47 261.48 303.7 262.04 311.93 262.6 320.16 262.99 328.4 263.39 336.63 263.63 344.86 263.86" stroke="#0080ff" stroke-width="4"></path><path d="M358.52 264Q361.07 264 363.62 263.99 366.17 263.97 368.71 263.95 371.26 263.92 373.81 263.88" stroke="#0080ff" stroke-width="4"></path><path d="M393.55 263.32Q402.2 262.87 410.85 262.43 419.5 261.81 428.14 261.19 436.79 260.4 445.44 259.6 454.09 258.64 462.74 257.68 471.39 256.55 480.03 255.42 488.68 254.14 497.33 252.85" stroke="#00ffff" stroke-width="4"></path><path d="M526.45 247.85Q530.74 247.04 535.03 246.23 539.32 245.38 543.6 244.54 547.89 243.66 552.18 242.79" stroke="#ff0080" stroke-width="4"></path><path d="M575.69 237.69Q583.21 235.95 590.72 234.22 598.24 232.41 605.76 230.6 613.28 228.72 620.79 226.85 628.31 224.91 635.83 222.98 643.34 221 650.86 219.02 658.38 216.99 665.89 214.97 673.41 212.91 680.93 210.86 688.45 208.78 695.96 206.7 703.48 204.61 711 202.51 718.51 200.41 726.03 198.32 733.55 196.22 741.07 194.13 748.58 192.04 756.1 189.96" stroke="#4000ff" stroke-width="4"></path><path d="M793 179.96Q800.78 177.92 808.56 175.88 816.34 173.9 824.12 171.91 831.9 170 839.68 168.08 847.46 166.23 855.24 164.39 863.02 162.62 870.81 160.86 878.59 159.19 886.37 157.52 894.15 155.94 901.93 154.37 909.71 152.9 917.49 151.43 925.27 150.07 933.05 148.71 940.83 147.47 948.61 146.23" stroke="#0080ff" stroke-width="4"></path><path d="M981.03 141.88Q990.33 140.89 999.63 139.89 1008.93 139.1 1018.24 138.31 1027.54 137.72 1036.84 137.13" stroke="#8000ff" stroke-width="4"></path><path d="M1049.97 136.55Q1057.98 136.33 1065.99 136.12 1074 136.06 1082.01 136 1090.02 136.1 1098.03 136.2 1106.04 136.45 1114.05 136.71 1122.06 137.11 1130.07 137.52 1138.09 138.08 1146.1 138.64 1154.11 139.35 1162.12 140.06 1170.13 140.92 1178.14 141.78 1186.15 142.78 1194.16 143.78 1202.17 144.91 1210.18 146.05 1218.19 147.32 1226.2 148.59" stroke="#4000ff" stroke-width="4"></path><path d="M1240.92 151.14Q1249.12 152.68 1257.32 154.22 1265.52 155.88 1273.72 157.53 1281.93 159.3 1290.13 161.07 1298.33 162.93 1306.53 164.8 1314.73 166.76 1322.93 168.71" stroke="#ff0080" stroke-width="4"></path><path d="M1344.62 174.13Q1352.18 176.08 1359.73 178.04 1367.29 180.04 1374.84 182.05 1382.4 184.09 1389.96 186.14 1397.51 188.21 1405.07 190.28 1412.62 192.38 1420.18 194.47 1427.73 196.58 1435.29 198.68" stroke="#0080ff" stroke-width="4"></path><path d="M38.85 250.8Q47.16 253.07 55.47 255.34 63.77 257.57 72.08 259.8 80.39 261.98 88.7 264.16 97.01 266.27 105.31 268.39 113.62 270.43 121.93 272.47" stroke="#8000ff" stroke-width="4"></path><path d="M135.98 275.78Q140.73 276.87 145.48 277.95 150.23 279 154.97 280.05 159.72 281.07 164.47 282.09" stroke="#ff0080" stroke-width="4"></path><path d="M179.72 285.2Q187.51 286.69 195.3 288.17 203.08 289.55 210.87 290.92 218.66 292.18 226.45 293.44 234.23 294.57 242.02 295.71 249.81 296.71 257.6 297.72 265.38 298.59 273.17 299.46 280.96 300.2 288.75 300.93 296.53 301.53 304.32 302.12 312.11 302.57 319.89 303.02 327.68 303.33 335.47 303.63 343.26 303.79 351.04 303.95 358.83 303.96 366.62 303.97" stroke="#0080ff" stroke-width="4"></path><path d="M383.12 303.67Q391.87 303.34 400.62 303 409.37 302.47 418.13 301.95 426.88 301.25 435.63 300.55 444.38 299.67 453.13 298.79" stroke="#8000ff" stroke-width="4"></path><path d="M474.08 296.23Q481.77 295.15 489.46 294.06 497.16 292.85 504.85 291.64 512.54 290.31 520.24 288.98 527.93 287.55 535.62 286.11 543.31 284.57 551 283.03 558.7 281.39 566.39 279.76 574.08 278.03 581.77 276.3 589.47 274.49 597.16 272.68 604.85 270.8 612.54 268.92 620.24 266.97 627.93 265.02" stroke="#ff00ff" stroke-width="4"></path><path d="M649.65 259.34Q657.83 257.14 666.01 254.94 674.19 252.7 682.36 250.46 690.54 248.2 698.72 245.93 706.9 243.65 715.08 241.37 723.26 239.09 731.44 236.81 739.62 234.53 747.79 232.26 755.97 230 764.15 227.75 772.33 225.52 780.51 223.3 788.69 221.12 796.87 218.94 805.04 216.81 813.22 214.68 821.4 212.62 829.58 210.55" stroke="#ff0080" stroke-width="4"></path><path d="M866.5 201.82Q874.49 200.08 882.49 198.33 890.48 196.69 898.47 195.05 906.47 193.51 914.46 191.98 922.45 190.57 930.45 189.15 938.44 187.86 946.43 186.56 954.43 185.4 962.42 184.24 970.41 183.21 978.41 182.19 986.4 181.3 994.39 180.41 1002.39 179.67 1010.38 178.93" stroke="#00ffff" stroke-width="4"></path><path d="M1028.98 177.58Q1036.86 177.17 1044.74 176.76 1052.62 176.49 1060.5 176.23 1068.39 176.12 1076.27 176.01 1084.15 176.05 1092.03 176.09 1099.91 176.28 1107.79 176.47 1115.67 176.81 1123.55 177.15 1131.43 177.64 1139.32 178.13 1147.2 178.77 1155.08 179.4 1162.96 180.18 1170.84 180.96" stroke="#8000ff" stroke-width="4"></path><path d="M1199.4 184.49Q1207.21 185.64 1215.01 186.79 1222.82 188.06 1230.62 189.33 1238.43 190.72 1246.23 192.11 1254.04 193.61 1261.84 195.11 1269.65 196.72 1277.46 198.32 1285.26 200.02 1293.07 201.72 1300.87 203.51 1308.68 205.3 1316.48 207.17 1324.29 209.04 1332.09 210.98 1339.9 212.93" stroke="#00ffff" stroke-width="4"></path><path d="M1356.1 217.09Q1362.09 218.67 1368.09 220.25 1374.08 221.85 1380.07 223.45 1386.06 225.08 1392.06 226.71 1398.05 228.35 1404.04 230 1410.04 231.66 1416.03 233.32 1422.02 234.99 1428.01 236.65 1434.01 238.33 1440 240" stroke="#ff00ff" stroke-width="4"></path><path d="M20.54 285.73Q28.07 287.82 35.61 289.9 43.14 291.97 50.68 294.04 58.21 296.07 65.75 298.11 73.28 300.11 80.82 302.1 88.35 304.05 95.89 306 103.42 307.9 110.96 309.79 118.49 311.62 126.03 313.45 133.56 315.2 141.1 316.96 148.63 318.64 156.17 320.31" stroke="#00ffff" stroke-width="4"></path><path d="M166.61 322.54Q175.75 324.37 184.9 326.21 194.04 327.9 203.19 329.59 212.33 331.13 221.47 332.66 230.62 334.03 239.76 335.39" stroke="#ff0080" stroke-width="4"></path><path d="M263.7 338.43Q271.38 339.24 279.07 340.05 286.75 340.72 294.43 341.4 302.12 341.93 309.8 342.47 317.49 342.87 325.17 343.26 332.85 343.52 340.54 343.77 348.22 343.88 355.9 343.99 363.59 343.96 371.27 343.92" stroke="#ff0080" stroke-width="4"></path><path d="M384.55 343.63Q387.81 343.52 391.07 343.41 394.32 343.28 397.58 343.14 400.84 342.98 404.1 342.82" stroke="#ff0080" stroke-width="4"></path><path d="M431.39 340.92Q439.7 340.13 448.01 339.34 456.32 338.39 464.63 337.44 472.95 336.35 481.26 335.25 489.57 334.01 497.88 332.76 506.19 331.38 514.5 330 522.81 328.49 531.12 326.97 539.43 325.34 547.75 323.7 556.06 321.95 564.37 320.2 572.68 318.34 580.99 316.48" stroke="#ff0080" stroke-width="4"></path><path d="M606.98 310.3Q615.01 308.29 623.04 306.28 631.07 304.2 639.09 302.13 647.12 300 655.15 297.87 663.18 295.7 671.21 293.52 679.24 291.32 687.26 289.11 695.29 286.88 703.32 284.65 711.35 282.41 719.38 280.17 727.4 277.93 735.43 275.69 743.46 273.46 751.49 271.23" stroke="#ff00ff" stroke-width="4"></path><path d="M761.52 268.47Q770.08 266.14 778.64 263.8 787.2 261.51 795.76 259.23 804.32 257 812.88 254.77 821.44 252.61 830 250.45 838.56 248.37 847.12 246.29 855.68 244.31 864.24 242.33 872.8 240.45 881.36 238.57" stroke="#ff00ff" stroke-width="4"></path><path d="M895.85 235.57Q904.01 233.99 912.16 232.41 920.32 230.95 928.48 229.49 936.63 228.15 944.79 226.82" stroke="#0080ff" stroke-width="4"></path><path d="M980.03 221.99Q988 221.12 995.96 220.25 1003.93 219.53 1011.9 218.8 1019.87 218.23 1027.83 217.65 1035.8 217.22 1043.77 216.8 1051.73 216.52 1059.7 216.25 1067.67 216.13 1075.64 216.01 1083.6 216.05 1091.57 216.08" stroke="#ff00ff" stroke-width="4"></path><path d="M1120.93 217.02Q1128.44 217.46 1135.96 217.9 1143.47 218.47 1150.98 219.05 1158.5 219.75 1166.01 220.45 1173.52 221.29 1181.04 222.12 1188.55 223.08 1196.06 224.03 1203.58 225.11 1211.09 226.19 1218.6 227.38 1226.12 228.57 1233.63 229.88 1241.14 231.18 1248.66 232.59 1256.17 234" stroke="#ff00ff" stroke-width="4"></path><path d="M1269.56 236.67Q1275.07 237.83 1280.57 238.98 1286.07 240.19 1291.58 241.39 1297.09 242.64 1302.59 243.89" stroke="#00ffff" stroke-width="4"></path><path d="M1331.52 250.83Q1335.97 251.94 1340.42 253.06 1344.87 254.19 1349.31 255.33 1353.76 256.49 1358.21 257.64" stroke="#0080ff" stroke-width="4"></path><path d="M1386.17 265.11Q1392.9 266.94 1399.63 268.78 1406.36 270.64 1413.09 272.5 1419.81 274.37 1426.54 276.24 1433.27 278.12 1440 280" stroke="#00ffff" stroke-width="4"></path><path d="M39.75 331.04Q47.39 333.13 55.03 335.22 62.67 337.27 70.31 339.33 77.94 341.34 85.58 343.35 93.22 345.31 100.86 347.27 108.5 349.16 116.14 351.06" stroke="#4000ff" stroke-width="4"></path><path d="M135.96 355.78Q143.71 357.53 151.46 359.28 159.21 360.95 166.96 362.61 174.71 364.17 182.46 365.74 190.21 367.2 197.96 368.66 205.71 370.01 213.46 371.36 221.21 372.59 228.96 373.82 236.71 374.93 244.46 376.04 252.21 377.02 259.96 378" stroke="#ff00ff" stroke-width="4"></path><path d="M297.59 381.64Q305.19 382.14 312.8 382.65 320.4 383.01 328 383.38 335.61 383.6 343.21 383.83 350.81 383.91 358.42 384 366.02 383.94 373.62 383.89 381.23 383.69 388.83 383.49 396.43 383.16 404.03 382.82 411.64 382.35 419.24 381.87 426.84 381.26 434.45 380.65 442.05 379.91 449.65 379.17 457.26 378.29 464.86 377.42" stroke="#4000ff" stroke-width="4"></path><path d="M488.76 374.16Q497.86 372.72 506.96 371.29 516.06 369.69 525.16 368.09 534.26 366.34 543.36 364.59 552.46 362.7 561.56 360.8" stroke="#0080ff" stroke-width="4"></path><path d="M586.72 355.16Q594.63 353.27 602.55 351.38 610.46 349.42 618.37 347.46 626.28 345.43 634.2 343.4 642.11 341.32 650.02 339.24 657.94 337.11 665.85 334.98 673.76 332.82 681.67 330.65 689.59 328.46 697.5 326.27 705.41 324.07 713.33 321.86 721.24 319.65 729.15 317.44 737.07 315.24 744.98 313.04 752.89 310.85 760.8 308.67 768.72 306.51 776.63 304.35" stroke="#8000ff" stroke-width="4"></path><path d="M794.37 299.59Q797.26 298.83 800.14 298.07 803.03 297.32 805.92 296.57 808.8 295.82 811.69 295.07" stroke="#ff00ff" stroke-width="4"></path><path d="M827.18 291.15Q834.92 289.25 842.66 287.36 850.39 285.54 858.13 283.72 865.87 281.98 873.61 280.25 881.34 278.6 889.08 276.95 896.82 275.4 904.56 273.85 912.29 272.41 920.03 270.97 927.77 269.64 935.51 268.3 943.25 267.09 950.98 265.88 958.72 264.79 966.46 263.69 974.2 262.73 981.93 261.77 989.67 260.94 997.41 260.11" stroke="#ff00ff" stroke-width="4"></path><path d="M1023.07 257.96Q1030.62 257.51 1038.17 257.06 1045.72 256.75 1053.28 256.43 1060.83 256.26 1068.38 256.08 1075.93 256.04 1083.48 256.01 1091.03 256.11 1098.58 256.21 1106.13 256.45 1113.69 256.69 1121.24 257.07 1128.79 257.44 1136.34 257.96 1143.89 258.47 1151.44 259.12 1158.99 259.76 1166.55 260.54 1174.1 261.32 1181.65 262.22 1189.2 263.13" stroke="#8000ff" stroke-width="4"></path><path d="M1209.25 265.91Q1217.1 267.15 1224.96 268.38 1232.81 269.74 1240.66 271.09 1248.52 272.56 1256.37 274.03 1264.22 275.61 1272.08 277.19 1279.93 278.87 1287.78 280.55 1295.64 282.32 1303.49 284.09 1311.34 285.95 1319.2 287.81 1327.05 289.74 1334.9 291.67 1342.76 293.67 1350.61 295.67 1358.46 297.72 1366.32 299.78 1374.17 301.88 1382.02 303.98 1389.88 306.12 1397.73 308.26" stroke="#ff0080" stroke-width="4"></path><path d="M6.43 361.8Q14.04 363.92 21.65 366.04 29.26 368.14 36.87 370.25 44.48 372.34 52.09 374.42 59.7 376.47 67.31 378.53 74.92 380.54 82.53 382.55 90.14 384.51 97.75 386.48 105.36 388.38 112.97 390.29 120.58 392.12 128.19 393.96" stroke="#8000ff" stroke-width="4"></path><path d="M146 398.07Q154.39 399.9 162.78 401.73 171.16 403.45 179.55 405.17 187.94 406.76 196.33 408.36 204.72 409.83 213.1 411.3 221.49 412.63 229.88 413.96 238.27 415.15 246.65 416.33 255.04 417.37 263.43 418.4" stroke="#4000ff" stroke-width="4"></path><path d="M299.86 421.81Q307.97 422.32 316.08 422.83 324.18 423.18 332.29 423.53 340.4 423.73 348.5 423.92 356.61 423.95 364.72 423.99 372.83 423.86 380.94 423.73 389.04 423.45 397.15 423.16 405.26 422.72 413.37 422.27 421.47 421.67 429.58 421.07" stroke="#4000ff" stroke-width="4"></path><path d="M452.26 418.88Q461.63 417.76 471 416.64 480.37 415.33 489.74 414.02 499.11 412.52 508.48 411.03 517.85 409.37 527.22 407.71" stroke="#ff00ff" stroke-width="4"></path><path d="M562.96 400.5Q569.34 399.09 575.71 397.68 582.09 396.22 588.46 394.75 594.84 393.23 601.21 391.71" stroke="#ff0080" stroke-width="4"></path><path d="M627.91 385.03Q636.29 382.84 644.67 380.66 653.05 378.42 661.43 376.18 669.82 373.89 678.2 371.61 686.58 369.29 694.96 366.98 703.34 364.65 711.72 362.31" stroke="#ff0080" stroke-width="4"></path><path d="M740.59 354.26Q748.41 352.09 756.23 349.92 764.05 347.78 771.88 345.64 779.7 343.53 787.52 341.42 795.34 339.35 803.16 337.28 810.98 335.27 818.81 333.26 826.63 331.3 834.45 329.35 842.27 327.47 850.09 325.59 857.91 323.79 865.73 321.99 873.56 320.28 881.38 318.57 889.2 316.95 897.02 315.34" stroke="#ff00ff" stroke-width="4"></path><path d="M930.13 309.2Q937.89 307.94 945.66 306.68 953.42 305.55 961.19 304.41 968.95 303.4 976.72 302.39 984.49 301.51 992.25 300.63 1000.01 299.89 1007.78 299.15" stroke="#00ffff" stroke-width="4"></path><path d="M1041.95 296.88Q1049.45 296.6 1056.96 296.32 1064.46 296.18 1071.96 296.04 1079.47 296.03 1086.97 296.03 1094.47 296.16 1101.97 296.29 1109.48 296.56 1116.98 296.83 1124.48 297.24 1131.99 297.64 1139.49 298.18 1146.99 298.71 1154.5 299.38 1162 300.05" stroke="#ff0080" stroke-width="4"></path><path d="M1191.18 303.38Q1198.73 304.43 1206.29 305.47 1213.84 306.64 1221.39 307.8 1228.94 309.07 1236.5 310.35 1244.05 311.73 1251.6 313.12 1259.15 314.6 1266.71 316.09 1274.26 317.67 1281.81 319.25 1289.37 320.92 1296.92 322.59 1304.47 324.34 1312.02 326.09 1319.58 327.91 1327.13 329.74 1334.68 331.63 1342.23 333.52 1349.79 335.47 1357.34 337.41 1364.89 339.41 1372.44 341.41 1380 343.44 1387.55 345.48" stroke="#ff00ff" stroke-width="4"></path><path d="M46.25 412.83Q54.66 415.11 63.07 417.39 71.49 419.63 79.9 421.86 88.31 424.04 96.72 426.22 105.14 428.32 113.55 430.43 121.96 432.45 130.38 434.48 138.79 436.41 147.2 438.34" stroke="#8000ff" stroke-width="4"></path><path d="M177.84 444.83Q187.34 446.64 196.84 448.46 206.34 450.1 215.85 451.75 225.35 453.22 234.85 454.69" stroke="#0080ff" stroke-width="4"></path><path d="M261.83 458.22Q270.51 459.14 279.19 460.06 287.87 460.81 296.54 461.56 305.22 462.14 313.9 462.71" stroke="#0080ff" stroke-width="4"></path><path d="M335.18 463.63Q342.73 463.78 350.29 463.94 357.84 463.96 365.4 463.98 372.95 463.86 380.51 463.74 388.06 463.49 395.62 463.23 403.17 462.83 410.73 462.44 418.28 461.91 425.84 461.38 433.39 460.71 440.95 460.05 448.5 459.25 456.06 458.46 463.61 457.54 471.17 456.62 478.72 455.57 486.28 454.53 493.83 453.37 501.39 452.2" stroke="#8000ff" stroke-width="4"></path><path d="M531.25 446.95Q538.5 445.53 545.75 444.11 553 442.6 560.25 441.08 567.5 439.49 574.75 437.9" stroke="#ff00ff" stroke-width="4"></path><path d="M604.1 431Q611.91 429.06 619.72 427.12 627.52 425.11 635.33 423.11 643.14 421.05 650.95 418.99 658.76 416.89 666.56 414.79 674.37 412.65 682.18 410.51 689.99 408.35 697.8 406.19 705.6 404.02 713.41 401.84 721.22 399.66 729.03 397.48 736.84 395.31 744.64 393.13 752.45 390.97 760.26 388.82" stroke="#0080ff" stroke-width="4"></path><path d="M797.51 378.77Q805.17 376.77 812.84 374.78 820.5 372.84 828.16 370.9 835.82 369.03 843.48 367.16 851.15 365.36 858.81 363.56" stroke="#8000ff" stroke-width="4"></path><path d="M875.32 359.87Q876.33 359.65 877.34 359.43 878.35 359.22 879.36 359 880.37 358.78 881.38 358.57" stroke="#4000ff" stroke-width="4"></path><path d="M914.34 352Q921.88 350.66 929.43 349.32 936.97 348.09 944.51 346.86 952.06 345.75 959.6 344.63 967.14 343.63 974.69 342.64 982.23 341.77 989.77 340.9 997.31 340.15 1004.86 339.41 1012.4 338.8 1019.94 338.18 1027.49 337.71 1035.03 337.23 1042.57 336.89 1050.12 336.54 1057.66 336.34 1065.2 336.13 1072.75 336.07 1080.29 336" stroke="#8000ff" stroke-width="4"></path><path d="M1091.94 336.09Q1094.82 336.14 1097.7 336.19 1100.58 336.26 1103.45 336.33 1106.33 336.43 1109.21 336.52" stroke="#4000ff" stroke-width="4"></path><path d="M1127.95 337.4Q1136.1 337.95 1144.25 338.5 1152.39 339.2 1160.54 339.91 1168.69 340.77 1176.84 341.63 1184.99 342.63 1193.13 343.64 1201.28 344.79 1209.43 345.94" stroke="#ff0080" stroke-width="4"></path><path d="M1241.11 351.17Q1249.28 352.71 1257.45 354.25 1265.63 355.9 1273.8 357.55 1281.97 359.31 1290.14 361.07 1298.31 362.93 1306.48 364.79 1314.66 366.74 1322.83 368.69 1331 370.71 1339.17 372.74 1347.34 374.84 1355.52 376.94 1363.69 379.09 1371.86 381.25 1380.03 383.45 1388.2 385.66 1396.37 387.9 1404.55 390.14 1412.72 392.4 1420.89 394.67" stroke="#8000ff" stroke-width="4"></path><path d="M11.79 443.29Q19.54 445.45 27.29 447.6 35.05 449.74 42.8 451.88 50.55 453.99 58.3 456.11 66.05 458.18 73.8 460.26 81.56 462.28 89.31 464.31 97.06 466.29 104.81 468.26 112.56 470.17 120.32 472.08 128.07 473.91 135.82 475.75 143.57 477.5 151.32 479.25 159.07 480.92 166.83 482.58 174.58 484.15 182.33 485.71" stroke="#ff00ff" stroke-width="4"></path><path d="M206.2 490.12Q214.4 491.48 222.59 492.84 230.79 494.06 238.99 495.28 247.18 496.37 255.38 497.45 263.58 498.38 271.77 499.32 279.97 500.1 288.17 500.88 296.36 501.51 304.56 502.14 312.76 502.6 320.95 503.07 329.15 503.38 337.35 503.69 345.54 503.83 353.74 503.98" stroke="#8000ff" stroke-width="4"></path><path d="M365.76 503.98Q374 503.84 382.23 503.7 390.47 503.39 398.7 503.09 406.94 502.62 415.17 502.15 423.41 501.53 431.64 500.9 439.88 500.11 448.12 499.33 456.35 498.39 464.59 497.45 472.82 496.36 481.06 495.28 489.29 494.05 497.53 492.82 505.76 491.45 514 490.09 522.23 488.59 530.47 487.1" stroke="#00ffff" stroke-width="4"></path><path d="M563.19 480.45Q571.31 478.65 579.42 476.84 587.54 474.94 595.65 473.05 603.77 471.06 611.89 469.08 620 467.03 628.12 464.98 636.23 462.86 644.35 460.74 652.47 458.58 660.58 456.41 668.7 454.2 676.81 451.99 684.93 449.75 693.04 447.51 701.16 445.25 709.28 442.99 717.39 440.73 725.51 438.46 733.62 436.2 741.74 433.94" stroke="#4000ff" stroke-width="4"></path><path d="M755.31 430.18Q763.79 427.86 772.26 425.53 780.74 423.25 789.21 420.96 797.69 418.73 806.16 416.5 814.64 414.33 823.12 412.17 831.59 410.08 840.07 407.98 848.54 405.98 857.02 403.98 865.49 402.07 873.97 400.17" stroke="#ff0080" stroke-width="4"></path><path d="M885.73 397.65Q893.43 396.09 901.12 394.52 908.82 393.06 916.52 391.6 924.21 390.25 931.91 388.9" stroke="#4000ff" stroke-width="4"></path><path d="M968.75 383.39Q972.25 382.95 975.76 382.51 979.26 382.09 982.76 381.67 986.27 381.29 989.77 380.9" stroke="#0080ff" stroke-width="4"></path><path d="M1014.36 378.61Q1022.84 378.02 1031.31 377.44 1039.79 377.03 1048.26 376.61 1056.74 376.37 1065.22 376.13 1073.69 376.07 1082.17 376 1090.64 376.11 1099.12 376.22" stroke="#4000ff" stroke-width="4"></path><path d="M1112.96 376.66Q1120.79 377.05 1128.61 377.43 1136.43 377.97 1144.26 378.5 1152.09 379.18 1159.91 379.85 1167.74 380.67 1175.56 381.48 1183.38 382.44 1191.21 383.39 1199.03 384.47 1206.86 385.56 1214.68 386.77 1222.51 387.98 1230.34 389.31 1238.16 390.64 1245.98 392.09 1253.81 393.54" stroke="#4000ff" stroke-width="4"></path><path d="M1282.73 399.45Q1291.05 401.3 1299.37 403.15 1307.69 405.09 1316.01 407.04 1324.32 409.07 1332.64 411.1 1340.96 413.21 1349.28 415.32 1357.6 417.5 1365.92 419.67 1374.24 421.9 1382.56 424.13 1390.88 426.4 1399.19 428.67 1407.51 430.96 1415.83 433.26 1424.15 435.58 1432.47 437.9" stroke="#ff0080" stroke-width="4"></path><path d="M33.96 489.45Q41.48 491.51 48.99 493.58 56.51 495.61 64.02 497.65 71.54 499.64 79.06 501.64 86.57 503.59 94.09 505.54 101.6 507.44 109.12 509.33 116.63 511.17 124.15 513 131.67 514.76 139.18 516.52 146.7 518.2 154.21 519.89 161.73 521.48 169.25 523.08 176.76 524.59 184.28 526.09 191.79 527.5 199.31 528.9 206.82 530.2 214.34 531.5" stroke="#8000ff" stroke-width="4"></path><path d="M235.55 534.79Q243.34 535.85 251.13 536.91 258.92 537.84 266.7 538.77 274.49 539.56 282.28 540.36 290.07 541.01 297.86 541.66 305.65 542.17 313.44 542.68 321.22 543.05 329.01 543.42 336.8 543.64 344.59 543.86" stroke="#4000ff" stroke-width="4"></path><path d="M367.87 543.96Q377.24 543.77 386.62 543.57 395.99 543.16 405.36 542.75 414.74 542.13 424.11 541.51" stroke="#00ffff" stroke-width="4"></path><path d="M436.64 540.45Q444.4 539.68 452.15 538.9 459.91 537.98 467.66 537.07 475.42 536.02 483.18 534.98 490.93 533.81 498.69 532.64 506.44 531.34 514.2 530.05 521.96 528.65 529.71 527.24 537.47 525.73 545.22 524.21 552.98 522.6 560.74 520.98 568.49 519.27 576.25 517.56 584 515.77 591.76 513.97" stroke="#ff00ff" stroke-width="4"></path><path d="M619.51 507.17Q628.63 504.83 637.75 502.48 646.87 500.06 655.99 497.64 665.1 495.17 674.22 492.7 683.34 490.19 692.46 487.67" stroke="#ff0080" stroke-width="4"></path><path d="M710.64 482.61Q718.55 480.41 726.45 478.2 734.36 476 742.26 473.79 750.17 471.6 758.08 469.42 765.98 467.25 773.89 465.09 781.79 462.96 789.7 460.84 797.6 458.75 805.51 456.67" stroke="#8000ff" stroke-width="4"></path><path d="M823.21 452.14Q831.25 450.16 839.28 448.17 847.32 446.27 855.35 444.36 863.39 442.54 871.42 440.72 879.46 439 887.49 437.28 895.53 435.66 903.56 434.05 911.6 432.54 919.63 431.04 927.67 429.65 935.71 428.27 943.74 427.01 951.78 425.76 959.81 424.63 967.85 423.51 975.88 422.53 983.92 421.54 991.95 420.7 999.99 419.86 1008.02 419.17 1016.06 418.47" stroke="#00ffff" stroke-width="4"></path><path d="M1035.68 417.19Q1043.61 416.84 1051.55 416.49 1059.48 416.29 1067.42 416.1 1075.35 416.05 1083.28 416.01 1091.22 416.11 1099.15 416.22 1107.09 416.48 1115.02 416.75 1122.95 417.16 1130.89 417.57 1138.82 418.13 1146.75 418.7 1154.69 419.4 1162.62 420.11 1170.56 420.97 1178.49 421.82" stroke="#00ffff" stroke-width="4"></path><path d="M1198.08 424.31Q1203.27 425.05 1208.45 425.79 1213.64 426.59 1218.83 427.39 1224.01 428.24 1229.2 429.09" stroke="#00ffff" stroke-width="4"></path><path d="M1263.65 435.47Q1271.21 437.04 1278.77 438.6 1286.33 440.25 1293.9 441.91 1301.46 443.65 1309.02 445.38" stroke="#00ffff" stroke-width="4"></path><path d="M1347.91 454.97Q1355.58 456.97 1363.26 458.97 1370.93 461.01 1378.61 463.06 1386.28 465.14 1393.95 467.23 1401.63 469.34 1409.3 471.45 1416.98 473.59 1424.65 475.72 1432.33 477.86 1440 480" stroke="#4000ff" stroke-width="4"></path><path d="M13.24 523.7Q21.46 525.98 29.68 528.27 37.91 530.53 46.13 532.79 54.35 535.03 62.57 537.26 70.79 539.44 79.02 541.63 87.24 543.76 95.46 545.89" stroke="#0080ff" stroke-width="4"></path><path d="M129.5 554.27Q137.89 556.2 146.28 558.13 154.67 559.96 163.06 561.79 171.44 563.51 179.83 565.22 188.22 566.82 196.61 568.41" stroke="#ff00ff" stroke-width="4"></path><path d="M226.6 573.46Q235.01 574.68 243.43 575.9 251.84 576.97 260.26 578.03 268.67 578.95 277.09 579.86 285.5 580.61 293.92 581.36 302.33 581.94 310.74 582.53 319.16 582.94 327.57 583.36 335.99 583.61 344.4 583.85 352.82 583.93 361.23 584" stroke="#ff0080" stroke-width="4"></path><path d="M382.89 583.68Q390.53 583.4 398.17 583.11 405.81 582.69 413.45 582.27 421.09 581.71 428.73 581.14 436.37 580.45 444.01 579.75 451.65 578.92 459.29 578.09 466.93 577.13 474.57 576.17 482.21 575.08 489.85 574" stroke="#4000ff" stroke-width="4"></path><path d="M526.81 567.78Q534.88 566.22 542.96 564.67 551.04 563 559.11 561.33 567.19 559.56 575.26 557.79" stroke="#00ffff" stroke-width="4"></path><path d="M600.02 552Q604.06 551.01 608.1 550.02 612.14 549.02 616.18 548.01 620.22 546.99 624.26 545.96" stroke="#4000ff" stroke-width="4"></path><path d="M648.28 539.7Q652.84 538.49 657.39 537.27 661.95 536.04 666.5 534.8 671.06 533.56 675.61 532.32" stroke="#00ffff" stroke-width="4"></path><path d="M710.68 522.6Q719.03 520.27 727.38 517.94 735.73 515.61 744.07 513.29 752.42 510.98 760.77 508.67 769.12 506.4 777.47 504.12 785.82 501.88 794.17 499.65 802.51 497.47 810.86 495.29 819.21 493.17 827.56 491.05" stroke="#ff0080" stroke-width="4"></path><path d="M839.3 488.17Q847.52 486.22 855.73 484.27 863.95 482.42 872.16 480.56 880.38 478.81 888.6 477.05 896.81 475.41 905.03 473.76 913.24 472.24 921.46 470.71 929.68 469.31 937.89 467.91 946.11 466.65 954.32 465.38 962.54 464.26 970.76 463.13 978.97 462.16 987.19 461.18 995.4 460.35 1003.62 459.52" stroke="#8000ff" stroke-width="4"></path><path d="M1037.17 457.11Q1045.19 456.78 1053.22 456.44 1061.24 456.25 1069.26 456.07 1077.29 456.04 1085.31 456.02 1093.33 456.15 1101.35 456.28 1109.38 456.56 1117.4 456.85 1125.42 457.29 1133.45 457.73 1141.47 458.33 1149.49 458.92 1157.52 459.66 1165.54 460.41 1173.56 461.3 1181.58 462.18 1189.61 463.22 1197.63 464.25" stroke="#ff00ff" stroke-width="4"></path><path d="M1225.96 468.55Q1229.36 469.12 1232.76 469.7 1236.16 470.3 1239.57 470.9 1242.97 471.52 1246.37 472.14" stroke="#0080ff" stroke-width="4"></path><path d="M1262.97 475.34Q1270.78 476.95 1278.58 478.56 1286.39 480.27 1294.2 481.98 1302 483.77 1309.81 485.57 1317.62 487.44 1325.42 489.32 1333.23 491.27 1341.03 493.21 1348.84 495.22 1356.65 497.23 1364.45 499.3 1372.26 501.36" stroke="#0080ff" stroke-width="4"></path><path d="M1390.21 506.21Q1392.98 506.96 1395.74 507.72 1398.51 508.48 1401.27 509.24 1404.04 510 1406.81 510.76 1409.57 511.53 1412.34 512.29 1415.11 513.06 1417.87 513.83 1420.64 514.6 1423.4 515.37 1426.17 516.14 1428.94 516.91 1431.7 517.68 1434.47 518.46 1437.23 519.23 1440 520" stroke="#00ffff" stroke-width="4"></path></g><defs><clipPath id="SvgjsClipPath1983"><rect width="1440" height="560" x="0" y="0"></rect></clipPath><linearGradient x1="15.28%" y1="-39.29%" x2="84.72%" y2="139.29%" gradientUnits="userSpaceOnUse" id="SvgjsLinearGradient1984"><stop stop-color="rgba(0, 0, 0, 1)" offset="0"></stop><stop stop-color="rgba(254, 254, 255, 1)" offset="0.92"></stop></linearGradient></defs></svg>