<svg xmlns="http://www.w3.org/2000/svg" version="1.1" xmlns:xlink="http://www.w3.org/1999/xlink" xmlns:svgjs="http://svgjs.dev/svgjs" width="1440" height="560" preserveAspectRatio="none" viewBox="0 0 1440 560"><g mask="url(&quot;#SvgjsMask1213&quot;)" fill="none"><rect width="1440" height="560" x="0" y="0" fill="url(&quot;#SvgjsLinearGradient1214&quot;)"></rect><path d="M-90.24 394.5L-90.24 394.5" stroke="#132e65" stroke-width="1.5"></path><path d="M-90.24 394.5L-41.17 498.34" stroke="#132e65" stroke-width="1.5"></path><path d="M-90.24 394.5L44.28 373.81" stroke="#132e65" stroke-width="1.5"></path><path d="M-90.24 394.5L72.32 529.63" stroke="#132e65" stroke-width="1.5"></path><path d="M-90.24 394.5L-111.76 640.04" stroke="#132e65" stroke-width="1.5"></path><path d="M-90.24 394.5L196.47 488.7" stroke="#132e65" stroke-width="1.5"></path><path d="M-90.24 394.5L231.04 378.73" stroke="#132e65" stroke-width="1.5"></path><path d="M-41.17 498.34L-41.17 498.34" stroke="#132e65" stroke-width="1.5"></path><path d="M-41.17 498.34L72.32 529.63" stroke="#132e65" stroke-width="1.5"></path><path d="M-111.76 640.04L-111.76 640.04" stroke="#132e65" stroke-width="1.5"></path><path d="M-111.76 640.04L-41.17 498.34" stroke="#132e65" stroke-width="1.5"></path><path d="M-111.76 640.04L74.46 680.15" stroke="#132e65" stroke-width="1.5"></path><path d="M-111.76 640.04L72.32 529.63" stroke="#132e65" stroke-width="1.5"></path><path d="M-111.76 640.04L44.28 373.81" stroke="#132e65" stroke-width="1.5"></path><path d="M-111.76 640.04L196.2 660.03" stroke="#132e65" stroke-width="1.5"></path><path d="M44.28 373.81L44.28 373.81" stroke="#132e65" stroke-width="1.5"></path><path d="M44.28 373.81L-41.17 498.34" stroke="#132e65" stroke-width="1.5"></path><path d="M44.28 373.81L72.32 529.63" stroke="#132e65" stroke-width="1.5"></path><path d="M72.32 529.63L72.32 529.63" stroke="#132e65" stroke-width="1.5"></path><path d="M72.32 529.63L196.47 488.7" stroke="#132e65" stroke-width="1.5"></path><path d="M72.32 529.63L74.46 680.15" stroke="#132e65" stroke-width="1.5"></path><path d="M74.46 680.15L74.46 680.15" stroke="#132e65" stroke-width="1.5"></path><path d="M74.46 680.15L196.2 660.03" stroke="#132e65" stroke-width="1.5"></path><path d="M231.04 378.73L231.04 378.73" stroke="#132e65" stroke-width="1.5"></path><path d="M231.04 378.73L196.47 488.7" stroke="#132e65" stroke-width="1.5"></path><path d="M231.04 378.73L44.28 373.81" stroke="#132e65" stroke-width="1.5"></path><path d="M196.47 488.7L196.47 488.7" stroke="#132e65" stroke-width="1.5"></path><path d="M196.47 488.7L196.2 660.03" stroke="#132e65" stroke-width="1.5"></path><path d="M196.47 488.7L44.28 373.81" stroke="#132e65" stroke-width="1.5"></path><path d="M196.2 660.03L196.2 660.03" stroke="#132e65" stroke-width="1.5"></path><path d="M196.2 660.03L72.32 529.63" stroke="#132e65" stroke-width="1.5"></path><path d="M196.2 660.03L387.66 707.23" stroke="#132e65" stroke-width="1.5"></path><path d="M196.2 660.03L231.04 378.73" stroke="#132e65" stroke-width="1.5"></path><path d="M196.2 660.03L-41.17 498.34" stroke="#132e65" stroke-width="1.5"></path><path d="M387.66 707.23L387.66 707.23" stroke="#132e65" stroke-width="1.5"></path><path d="M387.66 707.23L513.24 704.97" stroke="#132e65" stroke-width="1.5"></path><path d="M387.66 707.23L514.85 547.91" stroke="#132e65" stroke-width="1.5"></path><path d="M387.66 707.23L640.27 660.43" stroke="#132e65" stroke-width="1.5"></path><path d="M536.17 355.89L536.17 355.89" stroke="#132e65" stroke-width="1.5"></path><path d="M536.17 355.89L662.04 393.45" stroke="#132e65" stroke-width="1.5"></path><path d="M536.17 355.89L683.28 250.15" stroke="#132e65" stroke-width="1.5"></path><path d="M536.17 355.89L514.85 547.91" stroke="#132e65" stroke-width="1.5"></path><path d="M536.17 355.89L820.92 410.11" stroke="#132e65" stroke-width="1.5"></path><path d="M536.17 355.89L231.04 378.73" stroke="#132e65" stroke-width="1.5"></path><path d="M514.85 547.91L514.85 547.91" stroke="#132e65" stroke-width="1.5"></path><path d="M514.85 547.91L513.24 704.97" stroke="#132e65" stroke-width="1.5"></path><path d="M514.85 547.91L640.27 660.43" stroke="#132e65" stroke-width="1.5"></path><path d="M513.24 704.97L513.24 704.97" stroke="#132e65" stroke-width="1.5"></path><path d="M513.24 704.97L640.27 660.43" stroke="#132e65" stroke-width="1.5"></path><path d="M513.24 704.97L805.43 655.45" stroke="#132e65" stroke-width="1.5"></path><path d="M513.24 704.97L788.38 550.03" stroke="#132e65" stroke-width="1.5"></path><path d="M683.28 250.15L683.28 250.15" stroke="#132e65" stroke-width="1.5"></path><path d="M683.28 250.15L809.67 212.85" stroke="#132e65" stroke-width="1.5"></path><path d="M683.28 250.15L662.04 393.45" stroke="#132e65" stroke-width="1.5"></path><path d="M662.04 393.45L662.04 393.45" stroke="#132e65" stroke-width="1.5"></path><path d="M662.04 393.45L820.92 410.11" stroke="#132e65" stroke-width="1.5"></path><path d="M662.04 393.45L788.38 550.03" stroke="#132e65" stroke-width="1.5"></path><path d="M662.04 393.45L514.85 547.91" stroke="#132e65" stroke-width="1.5"></path><path d="M662.04 393.45L809.67 212.85" stroke="#132e65" stroke-width="1.5"></path><path d="M640.27 660.43L640.27 660.43" stroke="#132e65" stroke-width="1.5"></path><path d="M640.27 660.43L805.43 655.45" stroke="#132e65" stroke-width="1.5"></path><path d="M640.27 660.43L788.38 550.03" stroke="#132e65" stroke-width="1.5"></path><path d="M809.67 212.85L809.67 212.85" stroke="#132e65" stroke-width="1.5"></path><path d="M809.67 212.85L954.52 195.06" stroke="#132e65" stroke-width="1.5"></path><path d="M809.67 212.85L948.67 75.16" stroke="#132e65" stroke-width="1.5"></path><path d="M809.67 212.85L961.06 339.59" stroke="#132e65" stroke-width="1.5"></path><path d="M820.92 410.11L820.92 410.11" stroke="#132e65" stroke-width="1.5"></path><path d="M820.92 410.11L788.38 550.03" stroke="#132e65" stroke-width="1.5"></path><path d="M820.92 410.11L961.06 339.59" stroke="#132e65" stroke-width="1.5"></path><path d="M820.92 410.11L809.67 212.85" stroke="#132e65" stroke-width="1.5"></path><path d="M788.38 550.03L788.38 550.03" stroke="#132e65" stroke-width="1.5"></path><path d="M788.38 550.03L805.43 655.45" stroke="#132e65" stroke-width="1.5"></path><path d="M805.43 655.45L805.43 655.45" stroke="#132e65" stroke-width="1.5"></path><path d="M805.43 655.45L941.37 637.7" stroke="#132e65" stroke-width="1.5"></path><path d="M953.49 -86.24L953.49 -86.24" stroke="#132e65" stroke-width="1.5"></path><path d="M953.49 -86.24L948.67 75.16" stroke="#132e65" stroke-width="1.5"></path><path d="M953.49 -86.24L1131.53 -56.69" stroke="#132e65" stroke-width="1.5"></path><path d="M953.49 -86.24L1124.96 79.19" stroke="#132e65" stroke-width="1.5"></path><path d="M948.67 75.16L948.67 75.16" stroke="#132e65" stroke-width="1.5"></path><path d="M948.67 75.16L954.52 195.06" stroke="#132e65" stroke-width="1.5"></path><path d="M948.67 75.16L1124.96 79.19" stroke="#132e65" stroke-width="1.5"></path><path d="M948.67 75.16L1131.53 -56.69" stroke="#132e65" stroke-width="1.5"></path><path d="M954.52 195.06L954.52 195.06" stroke="#132e65" stroke-width="1.5"></path><path d="M954.52 195.06L961.06 339.59" stroke="#132e65" stroke-width="1.5"></path><path d="M954.52 195.06L1124.96 79.19" stroke="#132e65" stroke-width="1.5"></path><path d="M961.06 339.59L961.06 339.59" stroke="#132e65" stroke-width="1.5"></path><path d="M986.12 520.6L986.12 520.6" stroke="#132e65" stroke-width="1.5"></path><path d="M986.12 520.6L941.37 637.7" stroke="#132e65" stroke-width="1.5"></path><path d="M986.12 520.6L1125.6 513.23" stroke="#132e65" stroke-width="1.5"></path><path d="M986.12 520.6L961.06 339.59" stroke="#132e65" stroke-width="1.5"></path><path d="M986.12 520.6L820.92 410.11" stroke="#132e65" stroke-width="1.5"></path><path d="M986.12 520.6L788.38 550.03" stroke="#132e65" stroke-width="1.5"></path><path d="M986.12 520.6L1144.24 669.86" stroke="#132e65" stroke-width="1.5"></path><path d="M941.37 637.7L941.37 637.7" stroke="#132e65" stroke-width="1.5"></path><path d="M941.37 637.7L788.38 550.03" stroke="#132e65" stroke-width="1.5"></path><path d="M941.37 637.7L1144.24 669.86" stroke="#132e65" stroke-width="1.5"></path><path d="M941.37 637.7L1125.6 513.23" stroke="#132e65" stroke-width="1.5"></path><path d="M1131.53 -56.69L1131.53 -56.69" stroke="#132e65" stroke-width="1.5"></path><path d="M1131.53 -56.69L1124.96 79.19" stroke="#132e65" stroke-width="1.5"></path><path d="M1131.53 -56.69L1258.48 -109.77" stroke="#132e65" stroke-width="1.5"></path><path d="M1131.53 -56.69L1397.14 -110.83" stroke="#132e65" stroke-width="1.5"></path><path d="M1131.53 -56.69L954.52 195.06" stroke="#132e65" stroke-width="1.5"></path><path d="M1124.96 79.19L1124.96 79.19" stroke="#132e65" stroke-width="1.5"></path><path d="M1124.96 79.19L1252.53 260.29" stroke="#132e65" stroke-width="1.5"></path><path d="M1124.96 79.19L1258.48 -109.77" stroke="#132e65" stroke-width="1.5"></path><path d="M1153.85 373.49L1153.85 373.49" stroke="#132e65" stroke-width="1.5"></path><path d="M1153.85 373.49L1293.87 357.69" stroke="#132e65" stroke-width="1.5"></path><path d="M1153.85 373.49L1125.6 513.23" stroke="#132e65" stroke-width="1.5"></path><path d="M1153.85 373.49L1252.53 260.29" stroke="#132e65" stroke-width="1.5"></path><path d="M1153.85 373.49L961.06 339.59" stroke="#132e65" stroke-width="1.5"></path><path d="M1125.6 513.23L1125.6 513.23" stroke="#132e65" stroke-width="1.5"></path><path d="M1144.24 669.86L1144.24 669.86" stroke="#132e65" stroke-width="1.5"></path><path d="M1144.24 669.86L1276.79 655.9" stroke="#132e65" stroke-width="1.5"></path><path d="M1144.24 669.86L1125.6 513.23" stroke="#132e65" stroke-width="1.5"></path><path d="M1258.48 -109.77L1258.48 -109.77" stroke="#132e65" stroke-width="1.5"></path><path d="M1258.48 -109.77L1397.14 -110.83" stroke="#132e65" stroke-width="1.5"></path><path d="M1252.53 260.29L1252.53 260.29" stroke="#132e65" stroke-width="1.5"></path><path d="M1252.53 260.29L1293.87 357.69" stroke="#132e65" stroke-width="1.5"></path><path d="M1252.53 260.29L1406.34 214.96" stroke="#132e65" stroke-width="1.5"></path><path d="M1252.53 260.29L1426.56 74.99" stroke="#132e65" stroke-width="1.5"></path><path d="M1293.87 357.69L1293.87 357.69" stroke="#132e65" stroke-width="1.5"></path><path d="M1293.87 357.69L1406.34 214.96" stroke="#132e65" stroke-width="1.5"></path><path d="M1293.87 357.69L1265.97 546.31" stroke="#132e65" stroke-width="1.5"></path><path d="M1293.87 357.69L1125.6 513.23" stroke="#132e65" stroke-width="1.5"></path><path d="M1265.97 546.31L1265.97 546.31" stroke="#132e65" stroke-width="1.5"></path><path d="M1265.97 546.31L1276.79 655.9" stroke="#132e65" stroke-width="1.5"></path><path d="M1265.97 546.31L1125.6 513.23" stroke="#132e65" stroke-width="1.5"></path><path d="M1265.97 546.31L1427.3 547.3" stroke="#132e65" stroke-width="1.5"></path><path d="M1265.97 546.31L1144.24 669.86" stroke="#132e65" stroke-width="1.5"></path><path d="M1265.97 546.31L1153.85 373.49" stroke="#132e65" stroke-width="1.5"></path><path d="M1276.79 655.9L1276.79 655.9" stroke="#132e65" stroke-width="1.5"></path><path d="M1397.14 -110.83L1397.14 -110.83" stroke="#132e65" stroke-width="1.5"></path><path d="M1397.14 -110.83L1550.86 -90.11" stroke="#132e65" stroke-width="1.5"></path><path d="M1397.14 -110.83L1426.56 74.99" stroke="#132e65" stroke-width="1.5"></path><path d="M1397.14 -110.83L1583.33 75.59" stroke="#132e65" stroke-width="1.5"></path><path d="M1397.14 -110.83L1406.34 214.96" stroke="#132e65" stroke-width="1.5"></path><path d="M1426.56 74.99L1426.56 74.99" stroke="#132e65" stroke-width="1.5"></path><path d="M1426.56 74.99L1406.34 214.96" stroke="#132e65" stroke-width="1.5"></path><path d="M1426.56 74.99L1583.33 75.59" stroke="#132e65" stroke-width="1.5"></path><path d="M1426.56 74.99L1558.46 191.76" stroke="#132e65" stroke-width="1.5"></path><path d="M1406.34 214.96L1406.34 214.96" stroke="#132e65" stroke-width="1.5"></path><path d="M1406.34 214.96L1558.46 191.76" stroke="#132e65" stroke-width="1.5"></path><path d="M1427.3 547.3L1427.3 547.3" stroke="#132e65" stroke-width="1.5"></path><path d="M1427.3 547.3L1567.91 546.33" stroke="#132e65" stroke-width="1.5"></path><path d="M1427.3 547.3L1426.81 705.81" stroke="#132e65" stroke-width="1.5"></path><path d="M1427.3 547.3L1561.99 650.04" stroke="#132e65" stroke-width="1.5"></path><path d="M1426.81 705.81L1426.81 705.81" stroke="#132e65" stroke-width="1.5"></path><path d="M1426.81 705.81L1561.99 650.04" stroke="#132e65" stroke-width="1.5"></path><path d="M1426.81 705.81L1276.79 655.9" stroke="#132e65" stroke-width="1.5"></path><path d="M1426.81 705.81L1567.91 546.33" stroke="#132e65" stroke-width="1.5"></path><path d="M1426.81 705.81L1265.97 546.31" stroke="#132e65" stroke-width="1.5"></path><path d="M1550.86 -90.11L1550.86 -90.11" stroke="#132e65" stroke-width="1.5"></path><path d="M1550.86 -90.11L1583.33 75.59" stroke="#132e65" stroke-width="1.5"></path><path d="M1550.86 -90.11L1426.56 74.99" stroke="#132e65" stroke-width="1.5"></path><path d="M1583.33 75.59L1583.33 75.59" stroke="#132e65" stroke-width="1.5"></path><path d="M1583.33 75.59L1558.46 191.76" stroke="#132e65" stroke-width="1.5"></path><path d="M1583.33 75.59L1406.34 214.96" stroke="#132e65" stroke-width="1.5"></path><path d="M1558.46 191.76L1558.46 191.76" stroke="#132e65" stroke-width="1.5"></path><path d="M1567.91 546.33L1567.91 546.33" stroke="#132e65" stroke-width="1.5"></path><path d="M1567.91 546.33L1561.99 650.04" stroke="#132e65" stroke-width="1.5"></path><path d="M1561.99 650.04L1561.99 650.04" stroke="#132e65" stroke-width="1.5"></path><path d="M1561.99 650.04L1276.79 655.9" stroke="#132e65" stroke-width="1.5"></path><circle r="5" cx="-90.24" cy="394.5" fill="#132e65"></circle><circle r="5" cx="-41.17" cy="498.34" fill="#132e65"></circle><circle r="5" cx="-111.76" cy="640.04" fill="#132e65"></circle><circle r="5" cx="44.28" cy="373.81" fill="#132e65"></circle><circle r="5" cx="72.32" cy="529.63" fill="#132e65"></circle><circle r="5" cx="74.46" cy="680.15" fill="#132e65"></circle><circle r="5" cx="231.04" cy="378.73" fill="#132e65"></circle><circle r="5" cx="196.47" cy="488.7" fill="#132e65"></circle><circle r="5" cx="196.2" cy="660.03" fill="#132e65"></circle><circle r="5" cx="387.66" cy="707.23" fill="#132e65"></circle><circle r="5" cx="536.17" cy="355.89" fill="#132e65"></circle><circle r="5" cx="514.85" cy="547.91" fill="#132e65"></circle><circle r="5" cx="513.24" cy="704.97" fill="#132e65"></circle><circle r="5" cx="683.28" cy="250.15" fill="#132e65"></circle><circle r="5" cx="662.04" cy="393.45" fill="#132e65"></circle><circle r="5" cx="640.27" cy="660.43" fill="#132e65"></circle><circle r="5" cx="809.67" cy="212.85" fill="#132e65"></circle><circle r="5" cx="820.92" cy="410.11" fill="#132e65"></circle><circle r="5" cx="788.38" cy="550.03" fill="#132e65"></circle><circle r="5" cx="805.43" cy="655.45" fill="#132e65"></circle><circle r="5" cx="953.49" cy="-86.24" fill="#132e65"></circle><circle r="5" cx="948.67" cy="75.16" fill="#132e65"></circle><circle r="5" cx="954.52" cy="195.06" fill="#132e65"></circle><circle r="5" cx="961.06" cy="339.59" fill="#132e65"></circle><circle r="5" cx="986.12" cy="520.6" fill="#132e65"></circle><circle r="5" cx="941.37" cy="637.7" fill="#132e65"></circle><circle r="5" cx="1131.53" cy="-56.69" fill="#132e65"></circle><circle r="5" cx="1124.96" cy="79.19" fill="#132e65"></circle><circle r="5" cx="1153.85" cy="373.49" fill="#132e65"></circle><circle r="5" cx="1125.6" cy="513.23" fill="#132e65"></circle><circle r="5" cx="1144.24" cy="669.86" fill="#132e65"></circle><circle r="5" cx="1258.48" cy="-109.77" fill="#132e65"></circle><circle r="5" cx="1252.53" cy="260.29" fill="#132e65"></circle><circle r="5" cx="1293.87" cy="357.69" fill="#132e65"></circle><circle r="5" cx="1265.97" cy="546.31" fill="#132e65"></circle><circle r="5" cx="1276.79" cy="655.9" fill="#132e65"></circle><circle r="5" cx="1397.14" cy="-110.83" fill="#132e65"></circle><circle r="5" cx="1426.56" cy="74.99" fill="#132e65"></circle><circle r="5" cx="1406.34" cy="214.96" fill="#132e65"></circle><circle r="5" cx="1427.3" cy="547.3" fill="#132e65"></circle><circle r="5" cx="1426.81" cy="705.81" fill="#132e65"></circle><circle r="5" cx="1550.86" cy="-90.11" fill="#132e65"></circle><circle r="5" cx="1583.33" cy="75.59" fill="#132e65"></circle><circle r="5" cx="1558.46" cy="191.76" fill="#132e65"></circle><circle r="5" cx="1567.91" cy="546.33" fill="#132e65"></circle><circle r="5" cx="1561.99" cy="650.04" fill="#132e65"></circle><path d="M346 709.03L346 709.03" stroke="hsl(228.5, 77.2%, 51.5%)" stroke-width="1.5"></path><path d="M346 709.03L192.75 669.77" stroke="hsl(228.5, 77.2%, 51.5%)" stroke-width="1.5"></path><path d="M346 709.03L402.54 551.33" stroke="hsl(228.5, 77.2%, 51.5%)" stroke-width="1.5"></path><path d="M346 709.03L520.32 679.25" stroke="hsl(228.5, 77.2%, 51.5%)" stroke-width="1.5"></path><path d="M520.32 679.25L520.32 679.25" stroke="hsl(228.5, 77.2%, 51.5%)" stroke-width="1.5"></path><path d="M520.32 679.25L693.56 670.04" stroke="hsl(228.5, 77.2%, 51.5%)" stroke-width="1.5"></path><path d="M520.32 679.25L402.54 551.33" stroke="hsl(228.5, 77.2%, 51.5%)" stroke-width="1.5"></path><path d="M796.83 534.56L796.83 534.56" stroke="hsl(228.5, 77.2%, 51.5%)" stroke-width="1.5"></path><path d="M796.83 534.56L670.92 562.26" stroke="hsl(228.5, 77.2%, 51.5%)" stroke-width="1.5"></path><path d="M796.83 534.56L788.04 396.21" stroke="hsl(228.5, 77.2%, 51.5%)" stroke-width="1.5"></path><path d="M796.83 534.56L814.38 687.3" stroke="hsl(228.5, 77.2%, 51.5%)" stroke-width="1.5"></path><path d="M796.83 534.56L693.56 670.04" stroke="hsl(228.5, 77.2%, 51.5%)" stroke-width="1.5"></path><path d="M796.83 534.56L702.28 387.71" stroke="hsl(228.5, 77.2%, 51.5%)" stroke-width="1.5"></path><path d="M796.83 534.56L1009.44 529.21" stroke="hsl(228.5, 77.2%, 51.5%)" stroke-width="1.5"></path><path d="M814.38 687.3L814.38 687.3" stroke="hsl(228.5, 77.2%, 51.5%)" stroke-width="1.5"></path><path d="M814.38 687.3L693.56 670.04" stroke="hsl(228.5, 77.2%, 51.5%)" stroke-width="1.5"></path><path d="M814.38 687.3L958.95 699.15" stroke="hsl(228.5, 77.2%, 51.5%)" stroke-width="1.5"></path><path d="M814.38 687.3L670.92 562.26" stroke="hsl(228.5, 77.2%, 51.5%)" stroke-width="1.5"></path><path d="M814.38 687.3L1009.44 529.21" stroke="hsl(228.5, 77.2%, 51.5%)" stroke-width="1.5"></path><path d="M814.38 687.3L1095.35 712.42" stroke="hsl(228.5, 77.2%, 51.5%)" stroke-width="1.5"></path><path d="M1011.41 366.22L1011.41 366.22" stroke="hsl(228.5, 77.2%, 51.5%)" stroke-width="1.5"></path><path d="M1011.41 366.22L1092.17 401.56" stroke="hsl(228.5, 77.2%, 51.5%)" stroke-width="1.5"></path><path d="M1011.41 366.22L1114.39 245.49" stroke="hsl(228.5, 77.2%, 51.5%)" stroke-width="1.5"></path><path d="M1011.41 366.22L1009.44 529.21" stroke="hsl(228.5, 77.2%, 51.5%)" stroke-width="1.5"></path><path d="M1011.41 366.22L1118.06 499.59" stroke="hsl(228.5, 77.2%, 51.5%)" stroke-width="1.5"></path><path d="M1011.41 366.22L788.04 396.21" stroke="hsl(228.5, 77.2%, 51.5%)" stroke-width="1.5"></path><path d="M1011.41 366.22L1257.81 361.41" stroke="hsl(228.5, 77.2%, 51.5%)" stroke-width="1.5"></path><path d="M1118.06 499.59L1118.06 499.59" stroke="hsl(228.5, 77.2%, 51.5%)" stroke-width="1.5"></path><path d="M1118.06 499.59L1092.17 401.56" stroke="hsl(228.5, 77.2%, 51.5%)" stroke-width="1.5"></path><path d="M1118.06 499.59L1009.44 529.21" stroke="hsl(228.5, 77.2%, 51.5%)" stroke-width="1.5"></path><path d="M-89.12 507.28L-89.12 507.28" stroke="hsl(228.5, 77.2%, 51.5%)" stroke-width="1.5"></path><path d="M-89.12 507.28L-61.01 642.71" stroke="hsl(228.5, 77.2%, 51.5%)" stroke-width="1.5"></path><path d="M-89.12 507.28L81.8 505.81" stroke="hsl(228.5, 77.2%, 51.5%)" stroke-width="1.5"></path><path d="M-61.01 642.71L-61.01 642.71" stroke="hsl(228.5, 77.2%, 51.5%)" stroke-width="1.5"></path><path d="M-61.01 642.71L57.85 659.93" stroke="hsl(228.5, 77.2%, 51.5%)" stroke-width="1.5"></path><path d="M-61.01 642.71L81.8 505.81" stroke="hsl(228.5, 77.2%, 51.5%)" stroke-width="1.5"></path><path d="M-61.01 642.71L192.75 669.77" stroke="hsl(228.5, 77.2%, 51.5%)" stroke-width="1.5"></path><path d="M-61.01 642.71L216.14 562.25" stroke="hsl(228.5, 77.2%, 51.5%)" stroke-width="1.5"></path><path d="M-61.01 642.71L346 709.03" stroke="hsl(228.5, 77.2%, 51.5%)" stroke-width="1.5"></path><path d="M81.8 505.81L81.8 505.81" stroke="hsl(228.5, 77.2%, 51.5%)" stroke-width="1.5"></path><path d="M81.8 505.81L216.14 562.25" stroke="hsl(228.5, 77.2%, 51.5%)" stroke-width="1.5"></path><path d="M81.8 505.81L57.85 659.93" stroke="hsl(228.5, 77.2%, 51.5%)" stroke-width="1.5"></path><path d="M81.8 505.81L192.75 669.77" stroke="hsl(228.5, 77.2%, 51.5%)" stroke-width="1.5"></path><path d="M57.85 659.93L57.85 659.93" stroke="hsl(228.5, 77.2%, 51.5%)" stroke-width="1.5"></path><path d="M57.85 659.93L192.75 669.77" stroke="hsl(228.5, 77.2%, 51.5%)" stroke-width="1.5"></path><path d="M57.85 659.93L216.14 562.25" stroke="hsl(228.5, 77.2%, 51.5%)" stroke-width="1.5"></path><path d="M57.85 659.93L-89.12 507.28" stroke="hsl(228.5, 77.2%, 51.5%)" stroke-width="1.5"></path><path d="M216.14 562.25L216.14 562.25" stroke="hsl(228.5, 77.2%, 51.5%)" stroke-width="1.5"></path><path d="M216.14 562.25L192.75 669.77" stroke="hsl(228.5, 77.2%, 51.5%)" stroke-width="1.5"></path><path d="M192.75 669.77L192.75 669.77" stroke="hsl(228.5, 77.2%, 51.5%)" stroke-width="1.5"></path><path d="M402.54 551.33L402.54 551.33" stroke="hsl(228.5, 77.2%, 51.5%)" stroke-width="1.5"></path><path d="M402.54 551.33L501.87 491.07" stroke="hsl(228.5, 77.2%, 51.5%)" stroke-width="1.5"></path><path d="M501.87 491.07L501.87 491.07" stroke="hsl(228.5, 77.2%, 51.5%)" stroke-width="1.5"></path><path d="M501.87 491.07L670.92 562.26" stroke="hsl(228.5, 77.2%, 51.5%)" stroke-width="1.5"></path><path d="M501.87 491.07L520.32 679.25" stroke="hsl(228.5, 77.2%, 51.5%)" stroke-width="1.5"></path><path d="M501.87 491.07L702.28 387.71" stroke="hsl(228.5, 77.2%, 51.5%)" stroke-width="1.5"></path><path d="M702.28 387.71L702.28 387.71" stroke="hsl(228.5, 77.2%, 51.5%)" stroke-width="1.5"></path><path d="M702.28 387.71L788.04 396.21" stroke="hsl(228.5, 77.2%, 51.5%)" stroke-width="1.5"></path><path d="M702.28 387.71L670.92 562.26" stroke="hsl(228.5, 77.2%, 51.5%)" stroke-width="1.5"></path><path d="M670.92 562.26L670.92 562.26" stroke="hsl(228.5, 77.2%, 51.5%)" stroke-width="1.5"></path><path d="M670.92 562.26L693.56 670.04" stroke="hsl(228.5, 77.2%, 51.5%)" stroke-width="1.5"></path><path d="M693.56 670.04L693.56 670.04" stroke="hsl(228.5, 77.2%, 51.5%)" stroke-width="1.5"></path><path d="M693.56 670.04L501.87 491.07" stroke="hsl(228.5, 77.2%, 51.5%)" stroke-width="1.5"></path><path d="M693.56 670.04L958.95 699.15" stroke="hsl(228.5, 77.2%, 51.5%)" stroke-width="1.5"></path><path d="M788.04 396.21L788.04 396.21" stroke="hsl(228.5, 77.2%, 51.5%)" stroke-width="1.5"></path><path d="M788.04 396.21L670.92 562.26" stroke="hsl(228.5, 77.2%, 51.5%)" stroke-width="1.5"></path><path d="M788.04 396.21L1009.44 529.21" stroke="hsl(228.5, 77.2%, 51.5%)" stroke-width="1.5"></path><path d="M788.04 396.21L693.56 670.04" stroke="hsl(228.5, 77.2%, 51.5%)" stroke-width="1.5"></path><path d="M1009.44 529.21L1009.44 529.21" stroke="hsl(228.5, 77.2%, 51.5%)" stroke-width="1.5"></path><path d="M1009.44 529.21L1092.17 401.56" stroke="hsl(228.5, 77.2%, 51.5%)" stroke-width="1.5"></path><path d="M1009.44 529.21L958.95 699.15" stroke="hsl(228.5, 77.2%, 51.5%)" stroke-width="1.5"></path><path d="M1009.44 529.21L1095.35 712.42" stroke="hsl(228.5, 77.2%, 51.5%)" stroke-width="1.5"></path><path d="M958.95 699.15L958.95 699.15" stroke="hsl(228.5, 77.2%, 51.5%)" stroke-width="1.5"></path><path d="M958.95 699.15L1095.35 712.42" stroke="hsl(228.5, 77.2%, 51.5%)" stroke-width="1.5"></path><path d="M958.95 699.15L796.83 534.56" stroke="hsl(228.5, 77.2%, 51.5%)" stroke-width="1.5"></path><path d="M1135.62 85.43L1135.62 85.43" stroke="hsl(228.5, 77.2%, 51.5%)" stroke-width="1.5"></path><path d="M1135.62 85.43L1114.39 245.49" stroke="hsl(228.5, 77.2%, 51.5%)" stroke-width="1.5"></path><path d="M1135.62 85.43L1252.16 -77.53" stroke="hsl(228.5, 77.2%, 51.5%)" stroke-width="1.5"></path><path d="M1135.62 85.43L1408.68 85.85" stroke="hsl(228.5, 77.2%, 51.5%)" stroke-width="1.5"></path><path d="M1135.62 85.43L1395.89 193.2" stroke="hsl(228.5, 77.2%, 51.5%)" stroke-width="1.5"></path><path d="M1114.39 245.49L1114.39 245.49" stroke="hsl(228.5, 77.2%, 51.5%)" stroke-width="1.5"></path><path d="M1114.39 245.49L1092.17 401.56" stroke="hsl(228.5, 77.2%, 51.5%)" stroke-width="1.5"></path><path d="M1114.39 245.49L1257.81 361.41" stroke="hsl(228.5, 77.2%, 51.5%)" stroke-width="1.5"></path><path d="M1114.39 245.49L1118.06 499.59" stroke="hsl(228.5, 77.2%, 51.5%)" stroke-width="1.5"></path><path d="M1092.17 401.56L1092.17 401.56" stroke="hsl(228.5, 77.2%, 51.5%)" stroke-width="1.5"></path><path d="M1095.35 712.42L1095.35 712.42" stroke="hsl(228.5, 77.2%, 51.5%)" stroke-width="1.5"></path><path d="M1095.35 712.42L1299.68 657.68" stroke="hsl(228.5, 77.2%, 51.5%)" stroke-width="1.5"></path><path d="M1095.35 712.42L1118.06 499.59" stroke="hsl(228.5, 77.2%, 51.5%)" stroke-width="1.5"></path><path d="M1095.35 712.42L1289.87 510.62" stroke="hsl(228.5, 77.2%, 51.5%)" stroke-width="1.5"></path><path d="M1252.16 -77.53L1252.16 -77.53" stroke="hsl(228.5, 77.2%, 51.5%)" stroke-width="1.5"></path><path d="M1252.16 -77.53L1456.54 -67.21" stroke="hsl(228.5, 77.2%, 51.5%)" stroke-width="1.5"></path><path d="M1252.16 -77.53L1408.68 85.85" stroke="hsl(228.5, 77.2%, 51.5%)" stroke-width="1.5"></path><path d="M1257.81 361.41L1257.81 361.41" stroke="hsl(228.5, 77.2%, 51.5%)" stroke-width="1.5"></path><path d="M1257.81 361.41L1289.87 510.62" stroke="hsl(228.5, 77.2%, 51.5%)" stroke-width="1.5"></path><path d="M1257.81 361.41L1092.17 401.56" stroke="hsl(228.5, 77.2%, 51.5%)" stroke-width="1.5"></path><path d="M1257.81 361.41L1118.06 499.59" stroke="hsl(228.5, 77.2%, 51.5%)" stroke-width="1.5"></path><path d="M1289.87 510.62L1289.87 510.62" stroke="hsl(228.5, 77.2%, 51.5%)" stroke-width="1.5"></path><path d="M1289.87 510.62L1388.32 538.04" stroke="hsl(228.5, 77.2%, 51.5%)" stroke-width="1.5"></path><path d="M1289.87 510.62L1299.68 657.68" stroke="hsl(228.5, 77.2%, 51.5%)" stroke-width="1.5"></path><path d="M1289.87 510.62L1118.06 499.59" stroke="hsl(228.5, 77.2%, 51.5%)" stroke-width="1.5"></path><path d="M1289.87 510.62L1460.42 409.01" stroke="hsl(228.5, 77.2%, 51.5%)" stroke-width="1.5"></path><path d="M1289.87 510.62L1422.42 681.02" stroke="hsl(228.5, 77.2%, 51.5%)" stroke-width="1.5"></path><path d="M1299.68 657.68L1299.68 657.68" stroke="hsl(228.5, 77.2%, 51.5%)" stroke-width="1.5"></path><path d="M1299.68 657.68L1422.42 681.02" stroke="hsl(228.5, 77.2%, 51.5%)" stroke-width="1.5"></path><path d="M1299.68 657.68L1388.32 538.04" stroke="hsl(228.5, 77.2%, 51.5%)" stroke-width="1.5"></path><path d="M1299.68 657.68L1118.06 499.59" stroke="hsl(228.5, 77.2%, 51.5%)" stroke-width="1.5"></path><path d="M1456.54 -67.21L1456.54 -67.21" stroke="hsl(228.5, 77.2%, 51.5%)" stroke-width="1.5"></path><path d="M1456.54 -67.21L1597.7 -84.27" stroke="hsl(228.5, 77.2%, 51.5%)" stroke-width="1.5"></path><path d="M1456.54 -67.21L1408.68 85.85" stroke="hsl(228.5, 77.2%, 51.5%)" stroke-width="1.5"></path><path d="M1456.54 -67.21L1550.32 75.56" stroke="hsl(228.5, 77.2%, 51.5%)" stroke-width="1.5"></path><path d="M1456.54 -67.21L1395.89 193.2" stroke="hsl(228.5, 77.2%, 51.5%)" stroke-width="1.5"></path><path d="M1456.54 -67.21L1551.59 196.99" stroke="hsl(228.5, 77.2%, 51.5%)" stroke-width="1.5"></path><path d="M1408.68 85.85L1408.68 85.85" stroke="hsl(228.5, 77.2%, 51.5%)" stroke-width="1.5"></path><path d="M1408.68 85.85L1395.89 193.2" stroke="hsl(228.5, 77.2%, 51.5%)" stroke-width="1.5"></path><path d="M1408.68 85.85L1550.32 75.56" stroke="hsl(228.5, 77.2%, 51.5%)" stroke-width="1.5"></path><path d="M1408.68 85.85L1551.59 196.99" stroke="hsl(228.5, 77.2%, 51.5%)" stroke-width="1.5"></path><path d="M1395.89 193.2L1395.89 193.2" stroke="hsl(228.5, 77.2%, 51.5%)" stroke-width="1.5"></path><path d="M1395.89 193.2L1551.59 196.99" stroke="hsl(228.5, 77.2%, 51.5%)" stroke-width="1.5"></path><path d="M1395.89 193.2L1550.32 75.56" stroke="hsl(228.5, 77.2%, 51.5%)" stroke-width="1.5"></path><path d="M1395.89 193.2L1257.81 361.41" stroke="hsl(228.5, 77.2%, 51.5%)" stroke-width="1.5"></path><path d="M1395.89 193.2L1460.42 409.01" stroke="hsl(228.5, 77.2%, 51.5%)" stroke-width="1.5"></path><path d="M1460.42 409.01L1460.42 409.01" stroke="hsl(228.5, 77.2%, 51.5%)" stroke-width="1.5"></path><path d="M1460.42 409.01L1538.74 498.03" stroke="hsl(228.5, 77.2%, 51.5%)" stroke-width="1.5"></path><path d="M1460.42 409.01L1576.06 378.24" stroke="hsl(228.5, 77.2%, 51.5%)" stroke-width="1.5"></path><path d="M1460.42 409.01L1388.32 538.04" stroke="hsl(228.5, 77.2%, 51.5%)" stroke-width="1.5"></path><path d="M1460.42 409.01L1257.81 361.41" stroke="hsl(228.5, 77.2%, 51.5%)" stroke-width="1.5"></path><path d="M1388.32 538.04L1388.32 538.04" stroke="hsl(228.5, 77.2%, 51.5%)" stroke-width="1.5"></path><path d="M1388.32 538.04L1422.42 681.02" stroke="hsl(228.5, 77.2%, 51.5%)" stroke-width="1.5"></path><path d="M1422.42 681.02L1422.42 681.02" stroke="hsl(228.5, 77.2%, 51.5%)" stroke-width="1.5"></path><path d="M1422.42 681.02L1594.69 685.73" stroke="hsl(228.5, 77.2%, 51.5%)" stroke-width="1.5"></path><path d="M1597.7 -84.27L1597.7 -84.27" stroke="hsl(228.5, 77.2%, 51.5%)" stroke-width="1.5"></path><path d="M1597.7 -84.27L1550.32 75.56" stroke="hsl(228.5, 77.2%, 51.5%)" stroke-width="1.5"></path><path d="M1550.32 75.56L1550.32 75.56" stroke="hsl(228.5, 77.2%, 51.5%)" stroke-width="1.5"></path><path d="M1550.32 75.56L1551.59 196.99" stroke="hsl(228.5, 77.2%, 51.5%)" stroke-width="1.5"></path><path d="M1551.59 196.99L1551.59 196.99" stroke="hsl(228.5, 77.2%, 51.5%)" stroke-width="1.5"></path><path d="M1576.06 378.24L1576.06 378.24" stroke="hsl(228.5, 77.2%, 51.5%)" stroke-width="1.5"></path><path d="M1576.06 378.24L1538.74 498.03" stroke="hsl(228.5, 77.2%, 51.5%)" stroke-width="1.5"></path><path d="M1576.06 378.24L1551.59 196.99" stroke="hsl(228.5, 77.2%, 51.5%)" stroke-width="1.5"></path><path d="M1576.06 378.24L1388.32 538.04" stroke="hsl(228.5, 77.2%, 51.5%)" stroke-width="1.5"></path><path d="M1538.74 498.03L1538.74 498.03" stroke="hsl(228.5, 77.2%, 51.5%)" stroke-width="1.5"></path><path d="M1538.74 498.03L1388.32 538.04" stroke="hsl(228.5, 77.2%, 51.5%)" stroke-width="1.5"></path><path d="M1538.74 498.03L1594.69 685.73" stroke="hsl(228.5, 77.2%, 51.5%)" stroke-width="1.5"></path><path d="M1594.69 685.73L1594.69 685.73" stroke="hsl(228.5, 77.2%, 51.5%)" stroke-width="1.5"></path><path d="M1594.69 685.73L1388.32 538.04" stroke="hsl(228.5, 77.2%, 51.5%)" stroke-width="1.5"></path><path d="M1594.69 685.73L1299.68 657.68" stroke="hsl(228.5, 77.2%, 51.5%)" stroke-width="1.5"></path><circle r="25" cx="346" cy="709.03" fill="url(&quot;#SvgjsRadialGradient1215&quot;)"></circle><circle r="25" cx="520.32" cy="679.25" fill="url(&quot;#SvgjsRadialGradient1215&quot;)"></circle><circle r="25" cx="796.83" cy="534.56" fill="url(&quot;#SvgjsRadialGradient1215&quot;)"></circle><circle r="25" cx="814.38" cy="687.3" fill="url(&quot;#SvgjsRadialGradient1215&quot;)"></circle><circle r="25" cx="1011.41" cy="366.22" fill="url(&quot;#SvgjsRadialGradient1215&quot;)"></circle><circle r="25" cx="1118.06" cy="499.59" fill="url(&quot;#SvgjsRadialGradient1215&quot;)"></circle><circle r="5" cx="-89.12" cy="507.28" fill="#8b9ad9"></circle><circle r="5" cx="-61.01" cy="642.71" fill="#8b9ad9"></circle><circle r="5" cx="81.8" cy="505.81" fill="#8b9ad9"></circle><circle r="5" cx="57.85" cy="659.93" fill="#8b9ad9"></circle><circle r="5" cx="216.14" cy="562.25" fill="#8b9ad9"></circle><circle r="5" cx="192.75" cy="669.77" fill="#8b9ad9"></circle><circle r="5" cx="402.54" cy="551.33" fill="#8b9ad9"></circle><circle r="5" cx="501.87" cy="491.07" fill="#8b9ad9"></circle><circle r="5" cx="702.28" cy="387.71" fill="#8b9ad9"></circle><circle r="5" cx="670.92" cy="562.26" fill="#8b9ad9"></circle><circle r="5" cx="693.56" cy="670.04" fill="#8b9ad9"></circle><circle r="5" cx="788.04" cy="396.21" fill="#8b9ad9"></circle><circle r="5" cx="1009.44" cy="529.21" fill="#8b9ad9"></circle><circle r="5" cx="958.95" cy="699.15" fill="#8b9ad9"></circle><circle r="5" cx="1135.62" cy="85.43" fill="#8b9ad9"></circle><circle r="5" cx="1114.39" cy="245.49" fill="#8b9ad9"></circle><circle r="5" cx="1092.17" cy="401.56" fill="#8b9ad9"></circle><circle r="5" cx="1095.35" cy="712.42" fill="#8b9ad9"></circle><circle r="5" cx="1252.16" cy="-77.53" fill="#8b9ad9"></circle><circle r="5" cx="1257.81" cy="361.41" fill="#8b9ad9"></circle><circle r="5" cx="1289.87" cy="510.62" fill="#8b9ad9"></circle><circle r="5" cx="1299.68" cy="657.68" fill="#8b9ad9"></circle><circle r="5" cx="1456.54" cy="-67.21" fill="#8b9ad9"></circle><circle r="5" cx="1408.68" cy="85.85" fill="#8b9ad9"></circle><circle r="5" cx="1395.89" cy="193.2" fill="#8b9ad9"></circle><circle r="5" cx="1460.42" cy="409.01" fill="#8b9ad9"></circle><circle r="5" cx="1388.32" cy="538.04" fill="#8b9ad9"></circle><circle r="5" cx="1422.42" cy="681.02" fill="#8b9ad9"></circle><circle r="5" cx="1597.7" cy="-84.27" fill="#8b9ad9"></circle><circle r="5" cx="1550.32" cy="75.56" fill="#8b9ad9"></circle><circle r="5" cx="1551.59" cy="196.99" fill="#8b9ad9"></circle><circle r="5" cx="1576.06" cy="378.24" fill="#8b9ad9"></circle><circle r="5" cx="1538.74" cy="498.03" fill="#8b9ad9"></circle><circle r="5" cx="1594.69" cy="685.73" fill="#8b9ad9"></circle></g><defs><mask id="SvgjsMask1213"><rect width="1440" height="560" fill="#ffffff"></rect></mask><linearGradient x1="15.28%" y1="-39.29%" x2="84.72%" y2="139.29%" gradientUnits="userSpaceOnUse" id="SvgjsLinearGradient1214"><stop stop-color="#0e2a47" offset="0"></stop><stop stop-color="rgba(166, 179, 197, 1)" offset="1"></stop></linearGradient><radialGradient id="SvgjsRadialGradient1215"><stop stop-color="#ffffff" offset="0.1"></stop><stop stop-color="#1735b3" offset="0.2"></stop><stop stop-color="rgba(23, 53, 179, 0)" offset="1"></stop></radialGradient></defs></svg>